<?xml version="1.0" standalone="no"?>
<!DOCTYPE svg PUBLIC "-//W3C//DTD SVG 20010904//EN"
 "http://www.w3.org/TR/2001/REC-SVG-20010904/DTD/svg10.dtd">
<svg version="1.0" xmlns="http://www.w3.org/2000/svg"
 width="512.000000pt" height="512.000000pt" viewBox="0 0 512.000000 512.000000"
 preserveAspectRatio="xMidYMid meet">

<g transform="translate(0.000000,512.000000) scale(0.100000,-0.100000)"
fill="#000000" stroke="none">
<path d="M1425 4105 c-171 -33 -253 -56 -360 -100 -55 -23 -175 -83 -207 -103
-14 -9 -48 -30 -75 -46 -26 -16 -50 -32 -53 -36 -3 -3 -30 -25 -60 -47 -225
-166 -450 -478 -538 -750 -42 -126 -51 -161 -62 -233 -6 -41 -15 -76 -20 -78
-13 -5 -13 -429 0 -434 5 -1 14 -37 20 -78 24 -158 97 -355 194 -520 96 -165
269 -362 406 -463 30 -22 57 -44 60 -47 3 -4 27 -20 53 -36 27 -16 61 -37 75
-46 32 -20 151 -79 207 -103 34 -14 89 -32 230 -75 81 -24 294 -50 417 -50
168 0 436 43 455 73 3 6 -110 125 -253 265 -142 140 -485 478 -762 750 -277
273 -512 502 -523 509 -39 28 -24 54 109 184 70 68 356 349 636 624 279 275
574 564 653 641 80 78 143 146 139 152 -6 10 -76 29 -191 52 -33 7 -143 14
-245 15 -160 3 -201 0 -305 -20z"/>
<path d="M2272 3544 l3 -489 485 -2 c267 -2 491 1 498 6 10 6 11 14 4 27 -19
37 -52 111 -52 117 0 4 -23 46 -52 94 -164 279 -391 496 -674 643 -86 45 -140
69 -197 87 -16 5 -17 -21 -15 -483z"/>
<path d="M2270 1449 c0 -463 1 -491 18 -486 56 18 110 42 196 87 283 147 510
364 674 643 29 48 52 90 52 94 0 6 32 78 52 116 5 10 6 22 3 27 -4 6 -196 10
-501 10 l-494 0 0 -491z"/>
</g>
</svg>
